<mxfile host="app.diagrams.net" modified="2023-10-29T05:59:11.536Z" agent="Mozilla/5.0 (X11; Linux x86_64; rv:109.0) Gecko/20100101 Firefox/119.0" version="22.0.8" etag="0pfClijdsuXt7OLpmV9s" type="github">
  <diagram name="Page-1" id="alUxAt7tu6jJP4xuIAMN">
    <mxGraphModel>
      <root>
        <mxCell id="0" />
        <mxCell id="1" parent="0" />
      </root>
    </mxGraphModel>
  </diagram>
</mxfile>
